<svg width="32" height="32" viewBox="0 0 32 32" fill="none" xmlns="http://www.w3.org/2000/svg">
<rect width="32" height="32" rx="6" fill="#3ECF8E"/>
<path d="M23.2 24.8c.32 1.2-.32 1.6-.8 1.28l-12.8-12.8c-.32-.32-.32-.96 0-1.28L15.2 4.8c.48-.64 1.28-.48 1.44.32L23.2 24.8z" fill="white"/>
<path d="M25.12 11.2c.48.48.32 1.28-.32 1.36l-12.96.88c-.48.08-.8-.32-.48-.8L15.2 4.96c.32-.32.8-.4 1.04-.08l8.88 6.32z" fill="white" fill-opacity="0.8"/>
<path d="M13.6 24c-.16 1.12-1.44 1.12-1.6 0L9.6 7.84c-.08-.48.16-.96.56-1.12L15.36 3.84c.64-.32 1.28.16 1.12.8L13.6 24z" fill="white" fill-opacity="0.9"/>
</svg>