<svg width="100" height="100" viewBox="0 0 100 100" fill="none" xmlns="http://www.w3.org/2000/svg">
<path d="M72.5 77.5C73.5 81.25 71 82.5 69.5 81L32.5 42.5C31.5 41.5 31.5 39.5 32.5 38.5L50 15C51.5 13 54.5 13.5 55 16L72.5 77.5Z" fill="url(#paint0_linear)"/>
<path d="M78.5 35C80 36.5 79.5 39.5 77.5 39.75L37 42.5C35.5 42.75 34.5 40.5 35.5 39L50 15.5C51 14.5 52.5 14.25 53.5 15.25L78.5 35Z" fill="url(#paint1_linear)"/>
<path d="M42.5 75C42 78.5 38.5 78.5 38 75L27.5 24.5C27.25 23 28 21.5 29.5 21L50.5 12C52.5 11 54.5 12.5 54 15L42.5 75Z" fill="url(#paint2_linear)"/>
<defs>
<linearGradient id="paint0_linear" x1="76" y1="77" x2="27" y2="47" gradientUnits="userSpaceOnUse">
<stop stop-color="#3ECF8E"/>
<stop offset="1" stop-color="#1F6948"/>
</linearGradient>
<linearGradient id="paint1_linear" x1="80" y1="34" x2="0" y2="4" gradientUnits="userSpaceOnUse">
<stop offset="0.0166302" stop-color="#3ECF8E"/>
<stop offset="1" stop-color="#282828"/>
</linearGradient>
<linearGradient id="paint2_linear" x1="58" y1="32" x2="-10" y2="31" gradientUnits="userSpaceOnUse">
<stop stop-color="#3ECF8E"/>
<stop offset="1" stop-color="#1F6948"/>
</linearGradient>
</defs>
</svg>